<?xml version="1.0" encoding="utf-8"?>
<!-- Generator: Adobe Illustrator 22.0.1, SVG Export Plug-In . SVG Version: 6.00 Build 0)  -->
<svg version="1.1" id="_x36_" xmlns="http://www.w3.org/2000/svg" xmlns:xlink="http://www.w3.org/1999/xlink" x="0px" y="0px"
	 viewBox="0 0 163.7 103.8" style="enable-background:new 0 0 163.7 103.8;" xml:space="preserve">
<g>
	<path d="M53.8,64.8c-3.7-4.3-16.6-7.9-24.8-6.8c-8.2,1-19.9,3.3-25.6,8.2c-5.7,4.9-2.6,4.2-2.6,4.2c3.5-3.5,9.1-7.4,15.9-6.8
		c6.8,0.7,9.7,4.4,12.5,7.1c2.7,2.6,8.1,4.2,8.8,4.4c0.6,0.2,0.8-4.2-1.1-7.4c-1.9-3.2-9.6-3.8-9.4-4.4c0.2-0.6,7.6-1.7,16.8,6.1
		c2.6,2.2,9.6,4.4,10.9,4C56.5,72.9,57.6,69.1,53.8,64.8z"/>
	<path d="M65.2,18.2c2.6,7,0,15.1-1.2,16.5c-0.5-4.9-3.1-9.3-4-7.9c-0.9,1.4,2.2,10.5-3.9,17.2C49.4,51.5,34,54.5,28.4,55.3
		c-5.3,0.7,1.6-3.8,4-6.4c2.5-2.6,6.1-6.5,5.4-12.3c-0.2-1.8-0.2-1.3-2.2-0.3c-2,1-4.3,3.4-5.4,7.6c-1.1,4.1-2.1,6.2-3.9,8.6
		c-2.2,2.9-6.8,4.4-10.3,5.3c-3.5,0.9-5.1,2.7,1,1.4l0.7-0.1c6.8-1.9,20.8-4.2,26.5-5.5C51,52,61,46.6,65.4,38.4
		c3.3-2.7,7.5-4.4,8.7-4.5c1.2-0.2-0.9-4-4-2c0,0,4.5-5.3,6.2-5.4c1.7-0.1-2.2-3.8-4.5-1.1c0,0-0.6-1.5,0.7-3.1
		c1.2-1.4-1.9-2.4-3.7,0.3c0-0.4-0.1-0.8-0.1-1.2c0.5-3.4,2-9.5,4-12.5c2-3.1,1.7-7.2,1.4-8.5c-0.2-1.3-3.5,1-5.1,3.5
		c-1.6,2.5,0.1,7.6,0,9.6c-0.1,1.4-0.4,3.5-0.7,5.4c-1-4.4-3.2-8.7-7.3-12.3c-9.7-8.7-18.5-4.4-21.3-1.7c-2.8,2.7-4.1,9.4-0.1,10.9
		c3.1,1.1,5.4-2.7,5-4.5c-0.4-1.8,0-7.1,3.8-7.3c3.7-0.2,9.5,2.6,10.3,3.8c0.7,1.2-3.3,0.6-2.3,2.4C57.4,12,62.6,11.2,65.2,18.2z"/>
	<path d="M97.3,78.5C89.2,68.8,69.1,55,42.4,56.9c-5.8,0.4,16.7-0.7,23.1,7.9c4,5.3,7.7,10,9.1,8.8c1.4-1.2,0.4-5.5,0.4-5.5
		s1.5,1.1,2.4,7c0.9,5.9,5.1,9.8,6.5,9.2c1.3-0.6,3-5.6,1.6-8.6c-1.4-3-3-5.4-3-5.4c0.9-0.4,13.9,6.9,15.7,17.4
		c1.8,10.5-5.5,8.7-7.6,6.3c-2.1-2.4-3.5,3.6,0.3,5.2c-2.7,1.1-6.9-3.4-7.5,0.1c-0.6,3.5,8.9,7.1,14.1,2
		C102.8,96.1,105.3,88.1,97.3,78.5z"/>
	<path d="M84.3,60.3c10.8,2.8,26.4,7.4,33.3,1.5c5.7-4.9,0.7-5.8-5.8-5.6c-3.9,0.1-12.1,1.7-12.1,1.7s4.3-1.6,4.4-6.8
		c-5.5-0.4-11,3.7-11,3.7l0.9-3.2c0,0-5.2,0.4-7.6,1.4C81.8,55,81.5,54,81.5,54s2.3-0.5,2.7-2.1c0.4-1.6-4.4-1.6-7.1-1.2
		c-4.3,0.8-17,2.3-24.3,4.4C60.1,54.3,70.6,56.7,84.3,60.3z"/>
	<path d="M163.7,74.9c-4-1.3-11.1-2.7-14.6-2.1c3.9-3.4,6.5-7.9,7-13.1c1.3-13.5-10.2-19.9-19.9-16.4c-7.1,2.6-5.5,13.5-3.3,14.4
		c2.2,0.8,2.8-6.9,8.7-7.8c5.9-0.9,9.6,1.7,10.1,7.9c0.5,6.2-4.6,22.7-33.2,15.4c-28.7-7.3-42.5-13.8-45.7-13.4
		c2.6,1.6,18,7.6,32.5,12.6c0.4,0.5,0.9,0.9,0.9,0.9c4,2.6,7.7,7,8.9,11c1.8,6,5.2,8.5,9.6,11.1c3.1,1.9,2.5,1.2,2.5-3.1
		c0-4.2-6.7-10.5-6.7-10.5s4.3,3.2,6.9,2.8c2.6-0.5,0.1-1.9-2.6-4.4c-0.9-0.8-3.2-2.1-5.8-3.4c1.1,0.3,2.1,0.6,3.1,0.9
		c6.7,1.9,13.1,1.6,18.4-0.1c3.3-0.4,6.1,1.1,9.6,2.1C156.1,81.5,159.3,82,163.7,74.9z"/>
</g>
</svg>
