<?xml version="1.0" encoding="utf-8"?>
<!-- Generator: Adobe Illustrator 22.0.1, SVG Export Plug-In . SVG Version: 6.00 Build 0)  -->
<svg version="1.1" id="レイヤー_1" xmlns="http://www.w3.org/2000/svg" xmlns:xlink="http://www.w3.org/1999/xlink" x="0px"
	 y="0px" viewBox="0 0 122.4 113.1" style="enable-background:new 0 0 122.4 113.1;" xml:space="preserve">
<style type="text/css">
	.st0{fill:#009157;}
	.st1{fill:#FFFFFF;}
</style>
<rect x="11.1" class="st0" width="100.8" height="100.8"/>
<path class="st1" d="M30.4,30c0-2,0-6.5,0-12c5.3,0,10.7,0,13.4,0c3.8,0,5.5,1.6,5.5,4.3c0,2.3-1.8,3.5-5.1,3.5c-3.8,0-6.2,0-6.2,0
	v5.5c0,0,5.4,0,11.5,0c6.2,0,8.8-3.9,8.8-9.2c0-5.7-2.7-9.6-8.6-9.6c-5.4,0-12.8,0-19.3,0c0-4.4,0-7.9,0-7.9h-9.1c0,0,0,3,0,7.9
	c-3.4,0-5.7,0-5.7,0V18c0,0,2.3,0,5.7,0c0,4.1,0,9,0,14.2c0,15.4,13,15,13,15h22.7v-5.5c0,0-16.6-0.4-18-0.4
	C35.2,41.3,30.4,37.3,30.4,30"/>
<path class="st1" d="M77.5,46.5c8.5,0,10.4-2.5,13.1-4.4c3.5-2.6,13.2-13.1,16.1-21.8H97c-0.7,1.8-13.2,22-19.4,18.4
	c-1.9-1.1-2-2.2-2-8.2c0-4.8,0-25.8,0-25.8h-8.8c0,0,0,3.4,0,26.5C66.9,45.6,74.1,46.5,77.5,46.5"/>
<path class="st1" d="M56.8,61v-5.5H16V61h12c0,1.8,0,4.8,0,9H16v5.1h12c0,2.2,0,3.7,0,6.3c0,12.3,4.9,14.2,13.2,14.2
	c4.9,0,14,0,14,0v-5.5c0,0-6.2-0.3-8.7-0.3c-6.2,0-10.5-1.7-10.5-7.6c0-1.5,0-3.6,0-7.2h20.9V70H36c0-3.6,0-7,0-9H56.8"/>
<path class="st1" d="M86.4,81.1c0,11.7-5.8,14.6-12.1,14.6c-2.2,0-8.6,0-8.6,0v-5.5c0,0,3.1,0,7.2,0c3.5,0,5.4-3.8,5.4-9.4
	c0-3.9,0-9.8,0-9.8s8.4,0,15.2,0c3.8,0,5-2.1,5-4.7c0-4.1-2.8-5.2-5-5.2c-4.3,0-27.8,0-27.8,0v-5.5c0,0,15.7,0,30.5,0
	c14.8,0,14.6,21,2.4,21c-4.5,0-12.1,0-12.1,0S86.4,78.9,86.4,81.1"/>
<path class="st1" d="M99.2,93.5h1.1v-2.7h1.7c1,0,1.3,0.5,1.3,1.7c0,0.3,0,0.7,0.2,1h1.2c-0.2-0.3-0.4-1-0.4-1.7c0-1-0.6-1.3-1-1.4
	v0c0.2-0.1,1.1-0.4,1.1-1.6c0-1.1-0.7-1.8-2.2-1.8h-3.1V93.5 M100.4,87.9h1.9c0.6,0,1.1,0.2,1.1,1c0,0.7-0.4,1-1.1,1h-1.9V87.9"/>
<path class="st1" d="M107.2,90.3c0,3-2.5,5.5-5.5,5.5c-3,0-5.5-2.5-5.5-5.5c0-3,2.5-5.5,5.5-5.5C104.7,84.8,107.2,87.2,107.2,90.3
	 M101.7,85.6c-2.6,0-4.7,2.1-4.7,4.7c0,2.6,2.1,4.7,4.7,4.7c2.6,0,4.7-2.1,4.7-4.7C106.4,87.7,104.3,85.6,101.7,85.6z"/>
<path class="st0" d="M1.4,104v1.5H0v1.3h1.4v2.5c0,0-0.2,3.2,3.3,3.2c3.5,0,5.4,0,5.4,0v-1.3l-4.5-0.1c0,0-1.8-0.1-1.8-2.2
	c0-2.1,0-2.1,0-2.1l3.2,0c0,0,1-0.1,1,0.6c0,0,0.2,0.7-1,0.7c-1.2,0-1.6,0-1.6,0v1.3h3c0,0,2,0.1,2-2c0,0,0-1.8-2-1.8l-4.6,0V104
	H1.4"/>
<path class="st0" d="M10.6,104v5.4c0,0-0.1,2.9,2.4,2.9c0,0,1.8,0.1,2.7-0.5c0,0,1.2-0.8,1.8-1.3c0,0,2.1-2,2.7-3.5h-2.5
	c0,0-2,2.9-3.5,3.5c0,0-0.9,0.4-1.3-0.1c0,0-0.1,0-0.1-0.9c0-0.9,0-5.6,0-5.6H10.6"/>
<path class="st0" d="M20.4,104.5v1.3h2.8v1.5h-2.8v1.2h2.8v1.5c0,0-0.1,2.5,2.7,2.5c2.8,0,4,0,4,0v-1.3l-2.9-0.1
	c0,0-1.6-0.1-1.6-1.3c0-1.3,0-1.3,0-1.3h4.9v-1.2h-4.9v-1.6h4.9v-1.3H20.4"/>
<path class="st0" d="M30.6,104.5v1.3h6.7c0,0,1-0.1,1,0.9c0,0,0.1,0.9-1,0.9h-3.8v2.1c0,0,0.1,1.6-1.3,1.6h-1.7v1.3h2
	c0,0,3.1,0.2,3.1-2.7v-1.1h2.8c0,0,2.2,0,2.2-2.2c0,0-0.2-2.1-2.6-2.1L30.6,104.5"/>
<polyline class="st0" points="41.6,105.8 41.6,107.4 45.1,107.4 45.1,112.8 47,112.8 47,107.4 50.5,107.4 50.5,105.8 47,105.8 
	47,104.3 45.1,104.3 45.1,105.8 41.6,105.8 "/>
<path class="st0" d="M42.7,108c0,0,0,2.1-1.6,3.3l1.5,1.3c0,0,1-0.8,1.4-2.1c0.5-1.3,0.5-2.3,0.5-2.3L42.7,108"/>
<path class="st0" d="M47.6,108.2c0,0,0.1,1.3,0.5,2.2c0.3,0.9,1.4,2.2,1.4,2.2l1.5-1.1c0,0-0.8-0.8-1.1-1.7
	c-0.3-0.9-0.4-1.7-0.4-1.7L47.6,108.2"/>
<rect x="52" y="107.6" class="st0" width="9.6" height="1.8"/>
<path class="st0" d="M63.9,104.7v2.4c0,0,0.2,3.4-1.6,4.6l1.5,1.4c0,0,2-1.3,2-6v-2.4H63.9"/>
<path class="st0" d="M66.8,104.4v8.4c0,0,4.9,0.2,5.8-4.7l-1.8-0.8c0,0-0.2,2.6-2.1,3.3v-6.2H66.8"/>
<path class="st0" d="M74.1,104.6v1.6h7.1v-0.5l-0.6,0.1c0,0-0.1-0.9-0.3-1.2H74.1"/>
<path class="st0" d="M80.3,104c0,0,0.4,1.4,0.4,1.6l1.1-0.2c0,0-0.3-1-0.5-1.5L80.3,104"/>
<path class="st0" d="M81.6,104c0,0,0.4,1.4,0.5,1.7l1.1-0.1c0,0-0.3-1.2-0.5-1.6L81.6,104"/>
<path class="st0" d="M73.3,107v1.6h3.9c0,0-0.1,1.1-0.5,1.6c-0.4,0.4-0.8,0.9-3.2,1.2l0.8,1.6c0,0,2.9-0.3,4-1.8
	c0,0,0.8-0.9,0.8-2.5h3.4V107H73.3"/>
<path class="st0" d="M89.9,105.7c0,0-2.3,2.9-6.6,3.9l1,1.4c0,0,1.7-0.5,2.9-1.1v3.1h1.8v-4.1c0,0,2.1-1.6,2.5-2.1L89.9,105.7"/>
<path class="st0" d="M93,104.7l-0.9,1.5c0,0,2.6,0.8,3.5,1.6l1-1.6C96.6,106.2,94.7,105.2,93,104.7"/>
<path class="st0" d="M92.2,110.9l0.6,1.8c0,0,3.6-0.3,5.5-1.8c1.9-1.5,3-3.9,3.2-4.8l-1.8-0.8c0,0-0.8,3.5-3.6,4.7
	C96.2,110.1,94.7,110.8,92.2,110.9"/>
<path class="st0" d="M105.7,104.2c0,0-0.8,2.6-3.5,3.6l1.2,1.3c0,0,1.4-0.6,2.6-2h3.3c0,0-0.8,4-6.3,4.2l0.8,1.6
	c0,0,3.8-0.4,5.5-2.3c1.7-1.9,2-3.2,2.3-5l-2,0.3l-0.1-0.5h-2.3c0,0,0.5-0.9,0.5-1.1L105.7,104.2"/>
<path class="st0" d="M109.3,104.1c0,0,0.4,0.8,0.5,1.7l1.1-0.2c0,0-0.2-0.9-0.5-1.6L109.3,104.1"/>
<path class="st0" d="M110.7,104c0,0,0.5,1.2,0.5,1.6l1.2-0.2c0,0-0.3-1.2-0.5-1.5L110.7,104"/>
<path class="st0" d="M113.2,104.7v1.7h5.1c0,0-1.2,3.5-5.8,5.1l1.1,1.5c0,0,1.8-0.5,4.2-2.7c0,0,2.5,2.1,3.1,2.8l1.6-1.4
	c0,0-1.9-1.7-3.5-2.7c0,0,1.7-2.1,1.9-4.2H113.2"/>
</svg>
