<svg aria-hidden="true" style="position: absolute; width: 0; height: 0; overflow: hidden;" version="1.1" xmlns="http://www.w3.org/2000/svg" xmlns:xlink="http://www.w3.org/1999/xlink">
<defs>
<symbol id="icon-grass" viewBox="0 0 50 32">
<title>grass</title>
<path d="M16.586 19.977c-1.141-1.326-5.118-2.435-7.645-2.096-2.528 0.308-6.135 1.017-7.892 2.528s-0.802 1.295-0.802 1.295c1.079-1.079 2.805-2.281 4.902-2.096 2.096 0.216 2.99 1.356 3.854 2.189 0.832 0.802 2.497 1.295 2.713 1.356 0.185 0.062 0.247-1.295-0.339-2.281s-2.96-1.171-2.898-1.356c0.062-0.185 2.343-0.524 5.179 1.881 0.802 0.678 2.96 1.356 3.36 1.233 0.401-0.154 0.74-1.326-0.432-2.651z"></path>
<path d="M20.1 5.611c0.802 2.158 0 4.655-0.37 5.087-0.154-1.511-0.956-2.867-1.233-2.435s0.678 3.237-1.202 5.303c-2.066 2.312-6.813 3.237-8.54 3.484-1.634 0.216 0.493-1.171 1.233-1.973 0.771-0.802 1.881-2.004 1.665-3.792-0.062-0.555-0.062-0.401-0.678-0.092s-1.326 1.048-1.665 2.343c-0.339 1.264-0.647 1.911-1.202 2.651-0.678 0.894-2.096 1.356-3.175 1.634s-1.572 0.832 0.308 0.432l0.216-0.031c2.096-0.586 6.412-1.295 8.17-1.696 2.096-0.493 5.179-2.158 6.536-4.686 1.017-0.832 2.312-1.356 2.682-1.387 0.37-0.062-0.277-1.233-1.233-0.617 0 0 1.387-1.634 1.911-1.665s-0.678-1.171-1.387-0.339c0 0-0.185-0.462 0.216-0.956 0.37-0.432-0.586-0.74-1.141 0.093 0-0.123-0.031-0.247-0.031-0.37 0.154-1.048 0.617-2.929 1.233-3.854 0.617-0.956 0.524-2.22 0.432-2.62-0.062-0.401-1.079 0.308-1.572 1.079s0.031 2.343 0 2.96c-0.031 0.432-0.123 1.079-0.216 1.665-0.308-1.356-0.986-2.682-2.25-3.792-2.99-2.682-5.703-1.356-6.566-0.524s-1.264 2.898-0.031 3.36c0.956 0.339 1.665-0.832 1.541-1.387s0-2.189 1.171-2.25c1.141-0.062 2.929 0.802 3.175 1.171 0.216 0.37-1.017 0.185-0.709 0.74s1.911 0.308 2.713 2.466z"></path>
<path d="M29.996 24.2c-2.497-2.99-8.694-7.245-16.925-6.659-1.788 0.123 5.148-0.216 7.121 2.435 1.233 1.634 2.374 3.083 2.805 2.713s0.123-1.696 0.123-1.696 0.462 0.339 0.74 2.158c0.277 1.819 1.572 3.021 2.004 2.836 0.401-0.185 0.925-1.726 0.493-2.651s-0.925-1.665-0.925-1.665c0.277-0.123 4.285 2.127 4.84 5.364s-1.696 2.682-2.343 1.942c-0.647-0.74-1.079 1.11 0.093 1.603-0.832 0.339-2.127-1.048-2.312 0.031s2.744 2.189 4.347 0.617c1.634-1.603 2.405-4.069-0.062-7.029z"></path>
<path d="M25.988 18.59c3.329 0.863 8.139 2.281 10.266 0.462 1.757-1.511 0.216-1.788-1.788-1.726-1.202 0.031-3.73 0.524-3.73 0.524s1.326-0.493 1.356-2.096c-1.696-0.123-3.391 1.141-3.391 1.141l0.277-0.986c0 0-1.603 0.123-2.343 0.432-1.418 0.617-1.511 0.308-1.511 0.308s0.709-0.154 0.832-0.647c0.123-0.493-1.356-0.493-2.189-0.37-1.326 0.247-5.241 0.709-7.491 1.356 2.25-0.247 5.487 0.493 9.711 1.603z"></path>
<path d="M50.466 23.091c-1.233-0.401-3.422-0.832-4.501-0.647 1.202-1.048 2.004-2.435 2.158-4.039 0.401-4.162-3.145-6.135-6.135-5.056-2.189 0.802-1.696 4.162-1.017 4.439 0.678 0.247 0.863-2.127 2.682-2.405s2.96 0.524 3.114 2.435c0.154 1.911-1.418 6.998-10.235 4.748-8.848-2.25-13.102-4.254-14.089-4.131 0.802 0.493 5.549 2.343 10.019 3.884 0.123 0.154 0.277 0.277 0.277 0.277 1.233 0.802 2.374 2.158 2.744 3.391 0.555 1.85 1.603 2.62 2.96 3.422 0.956 0.586 0.771 0.37 0.771-0.956 0-1.295-2.066-3.237-2.066-3.237s1.326 0.986 2.127 0.863c0.802-0.154 0.031-0.586-0.802-1.356-0.277-0.247-0.986-0.647-1.788-1.048 0.339 0.093 0.647 0.185 0.956 0.277 2.066 0.586 4.039 0.493 5.672-0.031 1.017-0.123 1.881 0.339 2.96 0.647 1.85 0.555 2.836 0.709 4.193-1.48z"></path>
</symbol>
</defs>
</svg>
